<?xml version="1.0" encoding="UTF-8"?>
<svg width="512px" height="512px" viewBox="0 0 512 512" version="1.1" xmlns="http://www.w3.org/2000/svg" xmlns:xlink="http://www.w3.org/1999/xlink">
    <!-- Generator: Sketch 64 (93537) - https://sketch.com -->
    <title>画板</title>
    <desc>Created with Sketch.</desc>
    <g id="画板" stroke="none" stroke-width="1" fill="none" fill-rule="evenodd">
        <rect fill="#FFE8E6" x="0" y="0" width="512" height="512"></rect>
        <g id="编组" transform="translate(130.000000, 142.000000)">
            <path d="M105.646169,100.448356 C81.6316487,92.6202093 66.5475176,81.2169643 60.3937754,66.238621 C51.1631622,43.7711062 66.6122839,11.3711793 87.5524265,7.96527987 C108.492569,4.55938046 130.404497,12.3495261 138.638094,42.9887989 C144.127159,63.4149807 141.964818,82.5666479 132.151072,100.4438" id="路径" stroke="#FF9898" fill="#FF9898" transform="translate(99.627174, 53.836678) rotate(11.000000) translate(-99.627174, -53.836678) "></path>
            <path d="M168.331786,191.489097 C148.555691,172.10166 134.694678,155.576486 126.748749,141.913577 C114.829856,121.419212 136.09995,92.0605623 153.416125,88.6625316 C170.7323,85.2645009 197.821274,88.3486645 204.646663,119.012862 C209.196922,139.45566 199.405757,159.29197 175.273167,178.521793 L168.331786,191.489097 Z" id="路径" stroke="#FF9898" fill="#FF9898" transform="translate(164.505954, 139.529675) rotate(118.000000) translate(-164.505954, -139.529675) "></path>
            <path d="M75.1123678,160.02649 C41.2321672,154.049418 22.8925786,141.155881 20.0936019,121.34588 C15.8951368,91.6308773 31.3678978,74.8949675 50.8501015,71.7689441 C70.3323052,68.6429207 91.4662533,77.2474631 99.1440633,105.476846 C104.262603,124.296435 102.149869,143.063996 92.8058599,161.779529 L75.1123678,160.02649 Z" id="路径" stroke="#FF9898" fill="#FF9898" transform="translate(60.631273, 116.470607) rotate(-57.000000) translate(-60.631273, -116.470607) "></path>
            <path d="M180.159684,125.288142 C146.835405,118.958325 128.834298,105.036584 126.156363,83.5229197 C122.13946,51.2524232 138.779838,29.5476213 157.544679,26.1351364 C176.309521,22.7226515 203.779343,40.8124448 204.128218,60.087491 C204.360801,72.9375218 198.865161,92.0800635 187.641299,117.515116" id="路径" stroke="#FF9898" fill="#FF9898" transform="translate(164.843789, 75.503165) rotate(52.000000) translate(-164.843789, -75.503165) "></path>
            <path d="M96.4554216,209.243506 C80.3104678,200.56508 71.1025968,187.180769 68.8318085,169.090573 C65.4256262,141.955278 77.1682944,123.801746 93.0535955,120.935527 C108.938897,118.069308 133.784798,120.647536 140.028475,146.424041 C144.190925,163.608377 142.816167,181.445948 135.904199,199.936752" id="路径" stroke="#FF9898" fill="#FF9898" transform="translate(105.307977, 164.627313) rotate(196.000000) translate(-105.307977, -164.627313) "></path>
            <ellipse id="椭圆形" fill="#FF9898" cx="122.5" cy="108" rx="36.5" ry="37"></ellipse>
            <ellipse id="椭圆形" fill="#FFE4E4" cx="126.5" cy="109" rx="23.5" ry="24"></ellipse>
        </g>
    </g>
</svg>